<svg width="88" height="79" fill="none" xmlns="http://www.w3.org/2000/svg"><g clip-path="url(#a)" stroke="#3A6B9B" stroke-width="2" stroke-miterlimit="10" stroke-linejoin="round"><path d="M66 50.397 44 77.638 1.375 24.518 13.75 4.085h38.5M66 4.086h8.25l12.375 20.431L74.25 39.5M50.875 24.518h35.75M1.375 24.518h35.75M74.25 4.086 59.125 24.517M44 4.086l15.125 20.431M44 4.086 28.875 24.517M13.75 4.086l15.125 20.431M28.875 24.518 44 77.638M59.125 24.518 44 77.638M59.125 0v8.173M55 4.086h8.25M44 20.431v8.173M39.875 24.518h8.25M15.125 53.12v8.173M11 57.207h8.25M70.125 40.862v8.173M66 44.949h8.25"/></g><defs><clipPath id="a"><path fill="#fff" d="M0 0h88v79H0z"/></clipPath></defs></svg>