<svg width="62" height="83" fill="none" xmlns="http://www.w3.org/2000/svg"><g clip-path="url(#a)" stroke="#3A6B9B" stroke-width="2" stroke-miterlimit="10" stroke-linejoin="round"><path d="m37.538 45.041 8.581-11.573c3.202-4.63 3.843-7.973 3.843-10.288 0-10.673-8.582-19.29-19.212-19.29-10.63 0-19.212 8.617-19.212 19.29 0 2.315.64 5.659 3.842 10.288L52.523 83.62v-7.715h7.685L14.1 12.893"/><path d="M23.962 45.041 1.292 75.906h7.684v7.715L30.75 54.172M47.4 12.893 30.75 35.654M20.503 21.894c0-5.143 5.124-9.001 10.247-9.001s10.246 3.857 10.246 9.001M48.681 45.041h2.562M43.558 45.041h2.562M53.804 45.041h2.562M10.257 45.041h2.562M5.134 45.041h2.562M15.38 45.041h2.562"/></g><defs><clipPath id="a"><path fill="#fff" d="M0 0h62v83H0z"/></clipPath></defs></svg>