<svg width="22" height="21" fill="none" xmlns="http://www.w3.org/2000/svg"><path d="M11.953 5.903a1 1 0 0 0-2 0h2Zm1.496 3.238a1 1 0 0 0-1.414-1.414l1.414 1.414ZM2.737 1.96a1 1 0 0 0 1.25 1.561L2.736 1.96Zm3.358-.125A1 1 0 0 0 4.845.273l1.25 1.562ZM17.919 3.52a1 1 0 1 0 1.25-1.561l-1.25 1.561Zm-.86-3.248a1 1 0 0 0-1.249 1.562L17.06.273Zm-7.106 5.63v4.218h2V5.903h-2Zm2.082 1.824-1.717 1.716 1.414 1.415L13.45 9.14l-1.414-1.414Zm6.352 2.394a7.434 7.434 0 0 1-7.434 7.434v2a9.434 9.434 0 0 0 9.434-9.434h-2Zm-7.434 7.434a7.434 7.434 0 0 1-7.435-7.434h-2a9.434 9.434 0 0 0 9.435 9.434v-2Zm-7.435-7.434a7.434 7.434 0 0 1 7.435-7.435v-2a9.434 9.434 0 0 0-9.435 9.435h2Zm7.435-7.435a7.434 7.434 0 0 1 7.434 7.435h2A9.434 9.434 0 0 0 10.953.686v2Zm-6.967.835 2.109-1.686L4.845.273 2.738 1.96l1.25 1.561ZM19.168 1.96 17.06.273l-1.25 1.562L17.92 3.52l1.25-1.561Zm-8.85 7.483c.603-.603 1.635-.176 1.635.678h-2c0 .928 1.123 1.393 1.78.737l-1.415-1.415Z" fill="#3A6C9E"/></svg>